# xmcd
#
# Track frame offsets:
#	150
#	16724
#	31330
#	46040
#	65857
#	80729
#	96446
#	111472
#	135311
#	155223
#	170703
#	183499
#	200202
#	215660
#	232797
#	247572
#	265463
#	278755
#
# Disc length: 3944 seconds
#
# Revision: 0
# Processed by: cddbd v1.5.2PL0 Copyright (c) Steve Scherf et al.
# Submitted via: EasyCDDAExtractor 2010.6.0.0
#
DISCID=050f6612
DTITLE=Various Artist -  Glo Altyd Aan Môre
DYEAR=1900
DGENRE=
TTITLE0=Amor Vittone - Glo Altyd Aan Môre
TTITLE1=Amor Vittone - Lag
TTITLE2=Amor Vittone - Wat Van 'n Vakansie Net Vir Al Ons Girls
TTITLE3=Amor Vittone and Pieter Koen - Het Jy Dalk Die Sleutel
TTITLE4=Amor Vittone - Alles Wat Jy Doen
TTITLE5=Amor Vittone - Die Wêreld Wag
TTITLE6=Amor Vittone - Ek Wil Net Aankie Sê
TTITLE7=Amor Vittone - Kylie Minogue Medley
TTITLE8=Amor Vittone - Kom Val Hier Binne My
TTITLE9=Amor Vittone - Herinner My
TTITLE10=Amor Vittone - Jy Dra My
TTITLE11=Amor Vittone - Kom Huis Toe - Hier Na My
TTITLE12=Amor Vittone - Van Die Oomblik Wat Ons Glo
TTITLE13=Amor Vittone - Vlieg Nou Weg, My Mooie Skoenlapper
TTITLE14=Amor Vittone - Die Goeie Tyd
TTITLE15=Amor Vittone - Somewhere Over The Rainbow
TTITLE16=Amor Vittone - Doedoe Baba
TTITLE17=Amor Vittone and Kristina Bach - Vlieg Nou Weg, My Mooie Skoenlapper
EXTD=
EXTT0=
EXTT1=
EXTT2=
EXTT3=
EXTT4=
EXTT5=
EXTT6=
EXTT7=
EXTT8=
EXTT9=
EXTT10=
EXTT11=
EXTT12=
EXTT13=
EXTT14=
EXTT15=
EXTT16=
EXTT17=
PLAYORDER=
